<?xml version="1.0" encoding="UTF-8"?>
<!DOCTYPE svg PUBLIC "-//W3C//DTD SVG 1.1//EN" "http://www.w3.org/Graphics/SVG/1.1/DTD/svg11.dtd">
<!-- Creator: CorelDRAW X8 -->
<svg xmlns="http://www.w3.org/2000/svg" xml:space="preserve" width="4.18418in" height="4.18428in" version="1.1" style="shape-rendering:geometricPrecision; text-rendering:geometricPrecision; image-rendering:optimizeQuality; fill-rule:evenodd; clip-rule:evenodd"
viewBox="0 0 4184 4184"
 xmlns:xlink="http://www.w3.org/1999/xlink">
 <defs>
  <style type="text/css">
   <![CDATA[
    .fil1 {fill:#FEFEFE;fill-rule:nonzero}
    .fil0 {fill:#E53438;fill-rule:nonzero}
   ]]>
  </style>
 </defs>
 <g id="Layer_x0020_1">
  <metadata id="CorelCorpID_0Corel-Layer"/>
  <g id="_1965047080752">
   <polygon class="fil0" points="4184,4184 0,4184 0,0 4184,0 "/>
   <path class="fil1" d="M2058 3426l-237 0 -347 -771 0 771 -237 0 0 -1176 237 0 348 772 0 -772 236 0 0 1176zm988 -392c-6,134 -44,235 -113,304 -70,69 -168,104 -294,104 -133,0 -235,-44 -306,-131 -70,-88 -106,-212 -106,-375l0 -197c0,-162 37,-286 110,-374 73,-87 175,-131 305,-131 128,0 225,36 292,108 67,71 104,174 113,308l-238 0c-2,-83 -15,-141 -38,-172 -24,-31 -67,-47 -129,-47 -63,0 -108,22 -135,67 -26,44 -40,117 -42,219l0 222c0,117 13,197 40,240 25,44 70,66 134,66 62,0 105,-15 129,-46 24,-30 37,-85 40,-165l238 0zm477 -62l-94 118 0 336 -237 0 0 -1176 237 0 0 513 75 -127 219 -386 291 0 -337 517 343 659 -282 0 -215 -454z"/>
   <path class="fil1" d="M821 3908l0 -286 -92 0c-3,0 -5,0 -7,-2 -2,-2 -3,-5 -3,-8l0 -7c0,-3 1,-5 3,-7 2,-2 4,-3 7,-3l212 0c4,0 6,1 8,3 2,1 3,4 3,7l0 7c0,3 -1,6 -3,8 -2,2 -5,2 -8,2l-91 0 0 286c0,3 -1,6 -3,8 -2,1 -4,2 -8,2l-8 0c-3,0 -5,-1 -7,-2 -2,-2 -3,-5 -3,-8zm187 0l0 -303c0,-3 1,-5 3,-7 1,-2 4,-3 7,-3l180 0c4,0 6,1 8,3 2,1 3,4 3,7l0 7c0,3 -1,6 -3,8 -2,2 -5,2 -8,2l-161 0 0 118 151 0c3,0 6,1 8,3 2,2 3,5 3,8l0 7c0,3 -1,5 -3,7 -2,2 -5,3 -8,3l-151 0 0 123 165 0c3,0 6,1 8,2 2,2 3,5 3,8l0 7c0,3 -1,6 -3,8 -2,1 -5,2 -8,2l-184 0c-3,0 -6,-1 -7,-2 -2,-2 -3,-5 -3,-8zm257 -110c0,-9 0,-22 0,-41 0,-19 0,-33 0,-42 2,-38 13,-68 33,-91 20,-23 50,-34 90,-34 27,0 50,5 68,15 18,10 32,23 41,38 9,15 13,31 14,47l0 1c0,2 -1,4 -2,6 -2,1 -5,2 -7,2l-10 0c-5,0 -9,-3 -10,-9 -6,-27 -16,-45 -32,-56 -15,-11 -36,-16 -62,-16 -29,0 -52,8 -68,24 -16,17 -24,42 -26,76 0,8 0,21 0,38 0,17 0,30 0,39 2,34 10,59 26,76 16,16 39,24 68,24 26,0 47,-5 62,-16 16,-11 26,-29 32,-55 1,-7 5,-10 10,-10l10 0c2,0 5,1 7,2 2,2 3,4 2,7 -1,16 -5,32 -14,47 -9,15 -23,28 -41,38 -18,10 -41,15 -68,15 -40,0 -70,-11 -90,-34 -20,-23 -31,-53 -33,-91zm314 110l0 -303c0,-3 1,-5 3,-7 2,-2 4,-3 7,-3l9 0c3,0 6,1 8,3 1,1 2,4 2,7l0 135 179 0 0 -135c0,-3 1,-5 3,-7 1,-2 4,-3 7,-3l8 0c4,0 6,1 8,3 2,1 3,4 3,7l0 303c0,3 -1,6 -3,8 -2,1 -5,2 -8,2l-8 0c-3,0 -6,-1 -7,-2 -2,-2 -3,-5 -3,-8l0 -140 -179 0 0 140c0,3 -1,6 -3,8 -2,1 -4,2 -7,2l-9 0c-3,0 -5,-1 -7,-2 -2,-2 -3,-5 -3,-8zm324 0l0 -303c0,-3 1,-5 3,-7 1,-2 4,-3 7,-3l10 0c4,0 7,2 9,5l171 261 0 -256c0,-3 1,-5 3,-7 2,-2 4,-3 7,-3l9 0c3,0 6,1 7,3 2,1 3,4 3,7l0 303c0,3 -1,5 -3,7 -1,2 -4,3 -7,3l-10 0c-4,0 -7,-1 -10,-5l-170 -260 0 255c0,3 -1,6 -3,8 -2,1 -5,2 -8,2l-8 0c-3,0 -6,-1 -7,-2 -2,-2 -3,-5 -3,-8zm304 -113c-1,-9 -1,-22 -1,-38 0,-17 0,-30 1,-39 1,-42 12,-74 34,-96 21,-21 51,-32 88,-32 37,0 66,11 88,32 21,22 33,54 34,96 0,18 1,31 1,39 0,7 -1,20 -1,38 -2,85 -43,128 -122,128 -80,0 -120,-43 -122,-128zm215 -2c0,-18 1,-31 1,-36 0,-6 -1,-18 -1,-37 -2,-35 -10,-60 -27,-77 -17,-17 -39,-25 -66,-25 -28,0 -50,8 -66,25 -17,17 -26,42 -27,77 -1,9 -1,21 -1,37 0,15 0,27 1,36 1,35 10,60 26,77 17,17 39,25 67,25 27,0 50,-8 66,-25 17,-17 25,-42 27,-77zm103 115l0 -303c0,-3 1,-6 3,-7 2,-2 4,-3 7,-3l9 0c3,0 6,1 8,3 1,1 2,4 2,7l0 286 160 0c3,0 6,1 8,2 1,2 2,5 2,8l0 7c0,3 -1,6 -3,8 -2,1 -4,2 -7,2l-179 0c-3,0 -5,-1 -7,-2 -2,-2 -3,-5 -3,-8zm236 -113c0,-9 -1,-22 -1,-38 0,-17 1,-30 1,-39 1,-42 12,-74 34,-96 22,-21 51,-32 88,-32 37,0 66,11 88,32 21,22 33,54 34,96 1,18 1,31 1,39 0,7 0,20 -1,38 -2,85 -43,128 -122,128 -79,0 -120,-43 -122,-128zm215 -2c1,-18 1,-31 1,-36 0,-6 0,-18 -1,-37 -1,-35 -10,-60 -27,-77 -16,-17 -39,-25 -66,-25 -27,0 -49,8 -66,25 -17,17 -26,42 -27,77 0,9 0,21 0,37 0,15 0,27 0,36 1,35 10,60 27,77 16,17 38,25 66,25 28,0 50,-8 66,-25 17,-17 26,-42 27,-77zm91 7c0,-9 -1,-23 -1,-43 0,-21 1,-35 1,-44 1,-38 12,-67 34,-90 21,-22 51,-33 89,-33 27,0 49,5 67,15 17,10 31,21 39,35 9,13 14,25 15,36l0 1c0,2 -1,4 -3,5 -2,2 -4,3 -7,3l-10 0c-3,0 -5,-1 -6,-2 -1,-1 -3,-4 -4,-7 -5,-17 -15,-30 -30,-42 -15,-11 -35,-16 -61,-16 -28,0 -51,8 -67,23 -17,16 -26,41 -27,74 0,9 0,23 0,42 0,18 0,32 0,41 1,33 10,58 27,74 16,15 39,23 67,23 29,0 52,-8 70,-24 17,-17 26,-41 26,-73l0 -23 -80 0c-3,0 -6,-1 -8,-3 -2,-2 -3,-5 -3,-8l0 -7c0,-3 1,-5 3,-7 2,-2 5,-3 8,-3l99 0c3,0 6,1 7,3 2,2 3,4 3,7l0 41c0,25 -5,47 -15,65 -9,19 -24,34 -43,44 -18,11 -41,16 -67,16 -38,0 -68,-11 -89,-33 -22,-22 -33,-52 -34,-90zm319 108l0 -303c0,-3 1,-6 3,-7 2,-2 4,-3 7,-3l9 0c3,0 6,1 8,3 2,1 2,4 2,7l0 303c0,3 0,6 -2,8 -2,1 -5,2 -8,2l-9 0c-3,0 -5,-1 -7,-2 -2,-2 -3,-5 -3,-8zm116 0l0 -303c0,-3 1,-5 3,-7 2,-2 4,-3 7,-3l181 0c3,0 6,1 8,3 2,1 2,4 2,7l0 7c0,3 -1,6 -3,8 -2,2 -4,2 -7,2l-162 0 0 118 152 0c3,0 6,1 8,3 1,2 2,5 2,8l0 7c0,3 -1,5 -3,7 -2,2 -4,3 -7,3l-152 0 0 123 165 0c4,0 7,1 8,2 2,2 3,5 3,8l0 7c0,3 -1,6 -3,8 -2,1 -4,2 -8,2l-184 0c-3,0 -5,-1 -7,-2 -2,-2 -3,-5 -3,-8zm253 -68c0,-3 1,-5 3,-7 1,-2 4,-2 6,-2l10 0c5,0 9,3 10,9 2,15 11,28 25,39 15,11 36,16 64,16 29,0 51,-5 66,-16 14,-10 21,-25 21,-44 0,-12 -3,-22 -10,-29 -7,-8 -17,-14 -31,-20 -13,-6 -33,-13 -60,-22 -23,-7 -42,-15 -55,-22 -14,-8 -24,-17 -30,-28 -7,-10 -10,-24 -10,-41 0,-15 4,-30 13,-42 8,-13 20,-23 37,-30 16,-7 35,-11 57,-11 23,0 42,4 59,12 16,9 28,19 36,31 9,13 13,25 14,38 0,3 -1,5 -3,6 -1,2 -4,3 -7,3l-9 0c-2,0 -4,0 -6,-2 -3,-1 -4,-4 -4,-7 -2,-15 -10,-28 -25,-38 -15,-10 -33,-15 -55,-15 -24,0 -43,4 -57,14 -14,9 -21,23 -21,41 0,12 3,22 10,30 6,8 15,15 28,20 13,6 31,13 56,21 25,8 45,16 59,23 14,8 25,16 32,27 7,10 11,24 11,41 0,27 -10,49 -31,65 -20,15 -49,23 -85,23 -44,-2 -98,-12 -118,-83z"/>
  </g>
 </g>
</svg>
